# xmcd
#
# Track frame offsets:
#	150
#	20936
#	42196
#	58528
#	78715
#	95256
#
# Disc length: 1596 seconds
#
# Revision: 0
# Processed by: cddbd v1.5.2PL0 Copyright (c) Steve Scherf et al.
# Submitted via: dBpowerAMP V4.0
#
DISCID=48063a06
DTITLE=Smokey Robinson - So In Love
DYEAR=2007
DGENRE=Soul
TTITLE0=Easy
TTITLE1=So In Love
TTITLE2=Just a Touch Away
TTITLE3=I Love the Nearness of You
TTITLE4=Just Like You
TTITLE5=Got To Be There (Live)
EXTD=
EXTT0=
EXTT1=
EXTT2=
EXTT3=
EXTT4=
EXTT5=
PLAYORDER=
